<?xml version="1.0" encoding="UTF-8" standalone="no"?>
<!-- Created with Inkscape (http://www.inkscape.org/) -->

<svg
   xmlns:dc="http://purl.org/dc/elements/1.1/"
   xmlns:cc="http://creativecommons.org/ns#"
   xmlns:rdf="http://www.w3.org/1999/02/22-rdf-syntax-ns#"
   xmlns:svg="http://www.w3.org/2000/svg"
   xmlns="http://www.w3.org/2000/svg"
   xmlns:sodipodi="http://sodipodi.sourceforge.net/DTD/sodipodi-0.dtd"
   xmlns:inkscape="http://www.inkscape.org/namespaces/inkscape"
   id="svg3242"
   version="1.1"
   inkscape:version="0.48.3.1 r9886"
   width="326.59374"
   height="325.59376"
   xml:space="preserve"
   sodipodi:docname="arq12345.svg"><metadata
     id="metadata3248"><rdf:RDF><cc:Work
         rdf:about=""><dc:format>image/svg+xml</dc:format><dc:type
           rdf:resource="http://purl.org/dc/dcmitype/StillImage" /><dc:title></dc:title></cc:Work></rdf:RDF></metadata><defs
     id="defs3246" /><sodipodi:namedview
     pagecolor="#ffffff"
     bordercolor="#666666"
     borderopacity="1"
     objecttolerance="10"
     gridtolerance="10"
     guidetolerance="10"
     inkscape:pageopacity="0"
     inkscape:pageshadow="2"
     inkscape:window-width="1366"
     inkscape:window-height="718"
     id="namedview3244"
     showgrid="false"
     inkscape:zoom="1.4496593"
     inkscape:cx="57.836775"
     inkscape:cy="165.26411"
     inkscape:window-x="0"
     inkscape:window-y="0"
     inkscape:window-maximized="1"
     inkscape:current-layer="g3250" /><g
     id="g3250"
     inkscape:groupmode="layer"
     inkscape:label="arq12345"
     transform="matrix(1.25,0,0,-1.25,0,325.59376)"><path
       inkscape:connector-curvature="0"
       id="path3254"
       style="fill:#aad400;fill-opacity:1;fill-rule:nonzero;stroke:none"
       d="m 30.469,259.916 200.34,0 c 16.562,0 29.898,-13.336 29.898,-29.902 l 0,-199.555 c 0,-16.566 -13.336,-29.902 -29.898,-29.902 l -200.34,0 C 13.902,0.557 0.566,13.893 0.566,30.459 l 0,199.555 c 0,16.566 13.336,29.902 29.903,29.902 z" /><g
       transform="matrix(1,0,0,-1,0,260.47501)"
       id="g3256"><path
         inkscape:connector-curvature="0"
         id="path3258"
         style="fill:none;stroke:#000000;stroke-width:1.12;stroke-linecap:butt;stroke-linejoin:miter;stroke-miterlimit:4;stroke-opacity:1;stroke-dasharray:none"
         d="m 30.469,0.559 200.34,0 c 16.562,0 29.898,13.336 29.898,29.902 l 0,199.555 c 0,16.566 -13.336,29.902 -29.898,29.902 l -200.34,0 c -16.567,0 -29.903,-13.336 -29.903,-29.902 l 0,-199.555 C 0.566,13.895 13.902,0.559 30.469,0.559 z" /></g><text
       id="text3260"
       transform="scale(1,-1)"
       x="115.95706"
       y="-7.604352"><tspan
         id="tspan3262"
         sodipodi:role="line"
         y="-7.604352"
         x="115.95706 133.58586"
         style="font-size:22.39999962px;font-variant:normal;font-weight:normal;writing-mode:lr-tb;fill:#000000;fill-opacity:1;fill-rule:nonzero;stroke:none;font-family:DejaVu Sans;-inkscape-font-specification:DejaVuSans">Q5</tspan></text>
<path
       inkscape:connector-curvature="0"
       id="path3264"
       style="fill:#ccff00;fill-opacity:1;fill-rule:nonzero;stroke:none"
       d="m 38.544708,254.682 170.438002,0 c 16.562,0 29.898,-13.336 29.898,-29.898 l 0,-155.11 c 0,-16.566 -13.336,-29.902 -29.898,-29.902 l -170.438002,0 c -16.566,0 -29.9020004,13.336 -29.9020004,29.902 l 0,155.11 c 0,16.562 13.3360004,29.898 29.9020004,29.898 z" /><g
       transform="matrix(1,0,0,-1,0,260.47501)"
       id="g3266"><path
         inkscape:connector-curvature="0"
         id="path3268"
         style="fill:none;stroke:#000000;stroke-width:1.12;stroke-linecap:butt;stroke-linejoin:miter;stroke-miterlimit:4;stroke-opacity:1;stroke-dasharray:none"
         d="m 37.441,5.793 170.438,0 c 16.562,0 29.898,13.336 29.898,29.898 l 0,155.11 c 0,16.566 -13.336,29.902 -29.898,29.902 l -170.438,0 c -16.566,0 -29.902,-13.336 -29.902,-29.902 l 0,-155.11 C 7.539,19.129 20.875,5.793 37.441,5.793 z" /></g><text
       id="text3270"
       transform="scale(1,-1)"
       x="106.718"
       y="-45.284046"><tspan
         id="tspan3272"
         sodipodi:role="line"
         y="-45.284046"
         x="106.718 124.3468"
         style="font-size:22.39999962px;font-variant:normal;font-weight:normal;writing-mode:lr-tb;fill:#000000;fill-opacity:1;fill-rule:nonzero;stroke:none;font-family:DejaVu Sans;-inkscape-font-specification:DejaVuSans">Q4</tspan></text>
<path
       inkscape:connector-curvature="0"
       id="path3274"
       style="fill:#ffff00;fill-opacity:1;fill-rule:nonzero;stroke:#000000;stroke-opacity:1"
       d="m 44.284146,251.21342 137.305004,0 c 16.562,0 29.898,-13.336 29.898,-29.902 l 0,-112.277 c 0,-16.567005 -13.336,-29.903005 -29.898,-29.903005 l -137.305004,0 c -16.566,0 -29.902,13.336 -29.902,29.903005 l 0,112.277 c 0,16.566 13.336,29.902 29.902,29.902 z" /><text
       id="text3280"
       transform="scale(1,-1)"
       x="97.813705"
       y="-82.557793"><tspan
         id="tspan3282"
         sodipodi:role="line"
         y="-82.557793"
         x="97.813705 115.4425"
         style="font-size:22.39999962px;font-variant:normal;font-weight:normal;writing-mode:lr-tb;fill:#000000;fill-opacity:1;fill-rule:nonzero;stroke:none;font-family:DejaVu Sans;-inkscape-font-specification:DejaVuSans">Q3</tspan></text>
<path
       inkscape:connector-curvature="0"
       id="path3284"
       style="fill:#ff9947;fill-opacity:1;fill-rule:nonzero;stroke:none"
       d="m 52.691,241.733 91.243,0 c 16.566,0 29.902,-13.336 29.902,-29.903 l 0,-68.64 c 0,-16.563 -13.336,-29.899 -29.902,-29.899 l -91.243,0 c -16.566,0 -29.902,13.336 -29.902,29.899 l 0,68.64 c 0,16.567 13.336,29.903 29.902,29.903 z" /><g
       transform="matrix(1,0,0,-1,0,260.47501)"
       id="g3286"><path
         inkscape:connector-curvature="0"
         id="path3288"
         style="fill:none;stroke:#000000;stroke-width:1.12;stroke-linecap:butt;stroke-linejoin:miter;stroke-miterlimit:4;stroke-opacity:1;stroke-dasharray:none"
         d="m 52.691,18.742 91.243,0 c 16.566,0 29.902,13.336 29.902,29.903 l 0,68.64 c 0,16.563 -13.336,29.899 -29.902,29.899 l -91.243,0 c -16.566,0 -29.902,-13.336 -29.902,-29.899 l 0,-68.64 c 0,-16.567 13.336,-29.903 29.902,-29.903 z" /></g><text
       id="text3290"
       transform="scale(1,-1)"
       x="82.863434"
       y="-125.38824"><tspan
         id="tspan3292"
         sodipodi:role="line"
         y="-125.38824"
         x="82.863434 100.49223"
         style="font-size:22.39999962px;font-variant:normal;font-weight:normal;writing-mode:lr-tb;fill:#000000;fill-opacity:1;fill-rule:nonzero;stroke:none;font-family:DejaVu Sans;-inkscape-font-specification:DejaVuSans">Q2</tspan></text>
<path
       d="m 61.781,235.52601 30.633,0 c 16.566,0 29.902,-13.336 29.902,-29.903 l 0,-21.769 c 0,-16.563 -13.336,-29.899 -29.902,-29.899 l -30.633,0 c -16.562,0 -29.898,13.336 -29.898,29.899 l 0,21.769 c 0,16.567 13.336,29.903 29.898,29.903 z"
       style="fill:#ff0000;fill-opacity:1;fill-rule:nonzero;stroke:#000000;stroke-width:1.12000000000000011;stroke-linecap:butt;stroke-linejoin:miter;stroke-miterlimit:4;stroke-opacity:1;stroke-dasharray:none"
       id="path3296"
       inkscape:connector-curvature="0" /><text
       id="text3298"
       transform="scale(1,-1)"
       x="61.562603"
       y="-187.87178"><tspan
         id="tspan3300"
         sodipodi:role="line"
         y="-187.87178"
         x="61.562603 79.191406"
         style="font-size:22.39999962px;font-variant:normal;font-weight:normal;writing-mode:lr-tb;fill:#000000;fill-opacity:1;fill-rule:nonzero;stroke:none;font-family:DejaVu Sans;-inkscape-font-specification:DejaVuSans">Q1</tspan></text>
</g></svg>