<?xml version="1.0" encoding="UTF-8" standalone="no"?>
<!-- Created with Inkscape (http://www.inkscape.org/) -->

<svg
   xmlns:dc="http://purl.org/dc/elements/1.1/"
   xmlns:cc="http://creativecommons.org/ns#"
   xmlns:rdf="http://www.w3.org/1999/02/22-rdf-syntax-ns#"
   xmlns:svg="http://www.w3.org/2000/svg"
   xmlns="http://www.w3.org/2000/svg"
   xmlns:sodipodi="http://sodipodi.sourceforge.net/DTD/sodipodi-0.dtd"
   xmlns:inkscape="http://www.inkscape.org/namespaces/inkscape"
   width="744.09448819"
   height="1052.3622047"
   id="svg3096"
   version="1.1"
   inkscape:version="0.48.3.1 r9886"
   sodipodi:docname="New document 3">
  <defs
     id="defs3098" />
  <sodipodi:namedview
     id="base"
     pagecolor="#ffffff"
     bordercolor="#666666"
     borderopacity="1.0"
     inkscape:pageopacity="0.0"
     inkscape:pageshadow="2"
     inkscape:zoom="0.49497475"
     inkscape:cx="437.98074"
     inkscape:cy="550.87235"
     inkscape:document-units="px"
     inkscape:current-layer="layer1"
     showgrid="false"
     inkscape:window-width="1366"
     inkscape:window-height="718"
     inkscape:window-x="0"
     inkscape:window-y="0"
     inkscape:window-maximized="1" />
  <metadata
     id="metadata3101">
    <rdf:RDF>
      <cc:Work
         rdf:about="">
        <dc:format>image/svg+xml</dc:format>
        <dc:type
           rdf:resource="http://purl.org/dc/dcmitype/StillImage" />
        <dc:title></dc:title>
      </cc:Work>
    </rdf:RDF>
  </metadata>
  <g
     inkscape:label="Layer 1"
     inkscape:groupmode="layer"
     id="layer1">
    <g
       id="g3158">
      <g
         transform="translate(0,0.31402756)"
         id="g3150">
        <g
           id="g3860"
           transform="matrix(1.25,0,0,-1.25,248.67503,220.27736)">
          <path
             d="m 0,0 c -35.175,0 -62.012,-29.352 -62.012,-64.521 0,-35.177 26.837,-64.529 62.012,-64.529 3.513,0 6.942,0.299 10.269,0.86 -3.115,3.181 -4.949,8.168 -5.174,14.554 l 0,1.344 0,0.938 c -2.279,-0.266 -3.08,-0.266 -4.962,-0.266 -21.585,0 -40.625,21.72 -40.625,46.39 0,24.675 18.904,46.53 40.492,46.53 21.463,0 40.509,-21.855 40.509,-46.53 0,-17.43 -10.326,-34.992 -25.215,-42.904 1.206,-9.121 4.561,-13.678 10.329,-13.678 7.375,0 10.861,6.706 10.861,21.452 l 1.343,0 c 0.134,-2.68 0.134,-3.618 0.134,-5.229 0,-4.123 -0.443,-7.861 -1.282,-11.146 15.534,11.808 25.348,30.943 25.348,52.214 C 62.027,-29.352 35.186,0 0,0"
             style="fill:#b1211c;fill-opacity:1;fill-rule:nonzero;stroke:none"
             id="path3862"
             inkscape:connector-curvature="0" />
        </g>
        <g
           id="g3864"
           transform="matrix(1.25,0,0,-1.25,266.94903,349.41186)">
          <path
             d="m 0,0 0.27,-2.012 c 8.051,6.84 11.671,19.172 11.671,40.225 -0.132,31.112 -8.048,44.649 -26.56,44.649 -18.504,0 -26.549,-13.673 -26.549,-44.785 0,-21.985 4.158,-35.13 13.008,-41.161 2.009,-1.344 3.618,-2.012 7.509,-2.951 -4.427,3.486 -6.037,6.703 -6.037,11.67 0,6.834 4.828,11.661 11.801,11.661 C -6.303,17.296 -1.612,11.797 0,0"
             style="fill:#b1211c;fill-opacity:1;fill-rule:nonzero;stroke:none"
             id="path3866"
             inkscape:connector-curvature="0" />
        </g>
        <g
           id="g3868"
           transform="matrix(1.25,0,0,-1.25,235.77166,342.36849)">
          <path
             d="m 0,0 c 0,-6.035 4.02,-11.402 9.247,-12.205 l 0.54,0 0.805,0 c 1.745,0 2.547,0.135 4.694,0.404 l 0.132,0.805 0.134,1.068 c 0.134,0.807 0.27,2.012 0.27,3.356 0.133,1.742 0.133,3.08 0.133,4.023 0,9.117 -1.877,12.334 -7.377,12.334 C 3.62,9.785 0,5.625 0,0"
             style="fill:#b1211c;fill-opacity:1;fill-rule:nonzero;stroke:none"
             id="path3870"
             inkscape:connector-curvature="0" />
        </g>
      </g>
      <g
         style="fill:#999999"
         transform="matrix(1.318301,0,0,1.5576475,-112.43881,-842.63789)"
         id="g3109">
        <g
           style="fill:#999999"
           id="g3896"
           transform="matrix(4.1775543,0,0,-4.1775543,396.0346,695.74799)">
          <path
             d="m 0,0 0,-6.591 -0.387,0 c -0.662,3.996 -2.948,6.353 -6.085,6.353 -2.208,0 -3.876,-1.312 -3.876,-2.978 0,-1.709 0.889,-2.329 5.501,-3.837 2.598,-0.892 3.222,-1.125 4.112,-1.667 1.276,-0.817 2.088,-2.366 2.088,-4.033 0,-3.37 -3.136,-6.007 -7.127,-6.007 -1.589,0 -3.335,0.509 -4.574,1.321 l -1.318,0.891 c -0.116,0.079 -0.233,0.117 -0.351,0.117 -0.269,0 -0.459,-0.234 -0.621,-0.737 l -0.187,-0.542 -0.313,-0.929 -0.425,0 0,8.098 0.425,0 c 1.472,-5.158 3.914,-7.71 7.401,-7.71 2.481,0 4.454,1.703 4.454,3.799 0,2.049 -0.773,2.67 -5.38,4.182 -2.408,0.775 -3.105,1.083 -4.07,1.625 -1.438,0.854 -2.247,2.133 -2.247,3.603 0,2.988 2.825,5.313 6.508,5.313 1.547,0 2.905,-0.388 4.183,-1.125 0.664,-0.388 0.813,-0.467 1.006,-0.467 0.352,0 0.505,0.234 0.896,1.321 L 0,0 z"
             style="fill:#999999;fill-opacity:1;fill-rule:nonzero;stroke:none"
             id="path3898"
             inkscape:connector-curvature="0" />
        </g>
        <g
           style="fill:#999999"
           id="g3900"
           transform="matrix(2.7584052,0,0,-2.7584052,429.54684,709.14743)">
          <path
             d="m 0,0 c 0,-1.12 -0.928,-2.012 -2.051,-2.012 -1.162,0 -2.093,0.929 -2.093,2.012 0,1.129 0.931,2.017 2.093,2.017 C -0.891,2.017 0,1.129 0,0 m -0.5,-5.111 0,-14.961 c 0,-2.32 0.62,-2.824 3.759,-3.1 l 0,-0.382 -10.887,0 0,0.382 c 3.136,0.276 3.757,0.78 3.757,3.1 l 0,10.969 c 0,2.713 -0.233,2.904 -3.757,3.142 l 0,0.42 0.152,0 c 3.564,0.159 5.385,0.275 6.782,0.388 l 0.194,0.042 z"
             style="fill:#999999;fill-opacity:1;fill-rule:nonzero;stroke:none"
             id="path3902"
             inkscape:connector-curvature="0" />
        </g>
        <g
           style="fill:#999999"
           id="g3972"
           transform="matrix(2.9043966,0,0,-2.9043966,460.62725,738.89148)">
          <path
             d="M 0.37522238,-0.44283197 C 1.0409939,1.6122918 1.456258,2.3946456 2.4284192,3.4785716 c 1.3797174,1.4924457 3.0186136,2.2401138 4.9648631,2.2401138 1.8682067,0 3.5437157,-0.8189663 4.2547717,-2.1322029 0.525101,-0.9711978 0.673479,-1.565671 0.933621,-3.88286401 0.558824,1.97997161 0.931695,2.76617931 1.90482,3.84721481 1.343104,1.5280949 2.872163,2.1678521 4.964863,2.1678521 1.980935,0 3.547569,-0.5992906 4.407002,-1.7188658 0.823784,-1.044423 0.969271,-1.7179024 0.969271,-4.36749936 l 0,-8.40066774 c 0,-2.2391505 0.558824,-2.7266765 3.621758,-2.9897085 l 0,-0.370944 -10.52998,0 0,0.370944 c 3.062934,0.304462 3.625612,0.750558 3.625612,2.9897085 l 0,8.51339605 c 0,4.21912195 -0.412374,4.96100905 -2.767143,4.96100905 -2.612021,0 -4.664254,-1.6408231 -5.448535,-4.32606926 C 12.805205,-1.4516058 12.620215,-3.0567798 12.620215,-6.3798562 l 0,-2.3884913 c 0,-2.2391505 0.59929,-2.7266765 3.620794,-2.9897085 l 0,-0.370944 -10.4885499,0 0,0.370944 c 3.0186136,0.263032 3.6188677,0.750558 3.6188677,2.9897085 l 0,7.87363881 0,2.05705079 c 0,2.5012195 -0.8603963,3.5437155 -2.8018283,3.5437155 -2.2420408,0 -4.2181585,-1.5290583 -5.2259688,-4.02931439 C 0.59778861,-1.3032284 0.37522238,-2.8717898 0.37522238,-6.6419255 l 0,-2.126422 c 0,-2.2391505 0.59447323,-2.7266765 3.61983132,-2.9897085 l 0,-0.370944 -10.4885502,0 0,0.370944 c 3.0195771,0.263032 3.6159773,0.750558 3.6159773,2.9897085 l 0,10.5646659 c 0,1.9790081 -0.147414,2.3923452 -1.0829626,2.6891001 -0.4807814,0.1493409 -1.1157212,0.2206391 -2.5330147,0.3333674 l 0,0.4143007 0.4846354,0 c 0.4460957,0 1.5309853,0.075152 3.2450337,0.1483774 1.90289239,0.1117648 2.12738549,0.1117648 3.13904978,0.2591788 l 0,-6.08347477 z"
             style="fill:#999999;fill-opacity:1;fill-rule:nonzero;stroke:none"
             id="path3974"
             inkscape:connector-curvature="0" />
        </g>
      </g>
    </g>
  </g>
</svg>
